<?xml version="1.0" encoding="utf-8"?>
<!-- Generator: Adobe Illustrator 18.1.1, SVG Export Plug-In . SVG Version: 6.00 Build 0)  -->
<svg version="1.1" id="Layer_1" xmlns="http://www.w3.org/2000/svg" xmlns:xlink="http://www.w3.org/1999/xlink" x="0px" y="0px"
	 viewBox="0 0 406.7 128.7" enable-background="new 0 0 406.7 128.7" xml:space="preserve">
<text transform="matrix(1 0 0 1 5.5681 14.1954)" font-family="'Inconsolata'" font-size="12">Bootcamp</text>
<line fill="none" stroke="#000000" stroke-width="2" stroke-miterlimit="10" x1="62" y1="10.7" x2="112.2" y2="10.7"/>
<line fill="none" stroke="#000000" stroke-width="2" stroke-miterlimit="10" x1="87.1" y1="25.2" x2="112.2" y2="25.2"/>
<text transform="matrix(1 0 0 1 118.3655 14.1952)" font-family="'Inconsolata'" font-size="12">Prologue/</text>
<line fill="none" stroke="#000000" stroke-width="2" stroke-miterlimit="10" x1="87.1" y1="41.6" x2="112.2" y2="41.6"/>
<text transform="matrix(1 0 0 1 118.3652 45.4507)" font-family="'Inconsolata'" font-size="12">Special-Topics/</text>
<line fill="none" stroke="#000000" stroke-width="2" stroke-miterlimit="10" x1="87.1" y1="41.6" x2="112.2" y2="41.6"/>
<text transform="matrix(1 0 0 1 118.3652 45.4507)" font-family="'Inconsolata'" font-size="12">Special-Topics/</text>
<text transform="matrix(1 0 0 1 118.3652 29.0719)" font-family="'Inconsolata'" font-size="12">Python-Basics/</text>
<line fill="none" stroke="#000000" stroke-width="2" stroke-miterlimit="10" x1="87.1" y1="41.6" x2="112.2" y2="41.6"/>
<text transform="matrix(1 0 0 1 118.3652 45.4507)" font-family="'Inconsolata'" font-size="12">Special-Topics/</text>
<line fill="none" stroke="#000000" stroke-width="2" stroke-miterlimit="10" x1="87.1" y1="58.3" x2="112.2" y2="58.3"/>
<text transform="matrix(1 0 0 1 118.3652 62.1292)" font-family="'Inconsolata'" font-size="12">Data/</text>
<line fill="none" stroke="#000000" stroke-width="2" stroke-miterlimit="10" x1="87.1" y1="10.7" x2="87.1" y2="75.9"/>
<text transform="matrix(1 0 0 1 118.3655 76.1908)" font-family="'Inconsolata'" font-size="17">...</text>
<line fill="none" stroke="#000000" stroke-width="2" stroke-miterlimit="10" x1="87.1" y1="74.9" x2="112.2" y2="74.9"/>
<line fill="none" stroke="#000000" stroke-width="2" stroke-miterlimit="10" x1="213.7" y1="42.3" x2="263.9" y2="42.3"/>
<line fill="none" stroke="#000000" stroke-width="2" stroke-miterlimit="10" x1="238.8" y1="56.8" x2="263.9" y2="56.8"/>
<line fill="none" stroke="#000000" stroke-width="2" stroke-miterlimit="10" x1="238.8" y1="73.2" x2="263.9" y2="73.2"/>
<line fill="none" stroke="#000000" stroke-width="2" stroke-miterlimit="10" x1="238.8" y1="73.2" x2="263.9" y2="73.2"/>
<line fill="none" stroke="#000000" stroke-width="2" stroke-miterlimit="10" x1="238.8" y1="73.2" x2="263.9" y2="73.2"/>
<line fill="none" stroke="#000000" stroke-width="2" stroke-miterlimit="10" x1="238.8" y1="89.9" x2="263.9" y2="89.9"/>
<line fill="none" stroke="#000000" stroke-width="2" stroke-miterlimit="10" x1="238.8" y1="42.3" x2="238.8" y2="107.5"/>
<line fill="none" stroke="#000000" stroke-width="2" stroke-miterlimit="10" x1="238.8" y1="106.5" x2="263.9" y2="106.5"/>
<text transform="matrix(1 0 0 1 268.0392 45.4506)" font-family="'Inconsolata'" font-size="12">Data-Types.ipynb</text>
<text transform="matrix(1 0 0 1 268.0395 60.3008)" font-family="'Inconsolata'" font-size="12">Collection-Types.ipynb</text>
<text transform="matrix(1 0 0 1 268.0394 76.1907)" font-family="'Inconsolata'" font-size="12">Flow-Control.ipynb</text>
<text transform="matrix(1 0 0 1 268.0393 93.5872)" font-family="'Inconsolata'" font-size="12">File-IO.ipynb</text>
<text transform="matrix(1 0 0 1 268.039 107.4682)" font-family="'Inconsolata'" font-size="17">...</text>
</svg>
