<?xml version="1.0" encoding="utf-8"?>
<!-- Generator: Adobe Illustrator 20.0.0, SVG Export Plug-In . SVG Version: 6.00 Build 0)  -->
<svg version="1.1" id="Layer_1" xmlns="http://www.w3.org/2000/svg" xmlns:xlink="http://www.w3.org/1999/xlink" x="0px" y="0px"
	 viewBox="0 0 480.2 144.2" style="enable-background:new 0 0 480.2 144.2;" xml:space="preserve">
<style type="text/css">
	.st0{font-family:'Inconsolata';}
	.st1{font-size:12px;}
	.st2{fill:none;stroke:#000000;stroke-width:2;stroke-miterlimit:10;}
	.st3{font-size:17px;}
</style>
<text transform="matrix(1 0 0 1 1.5681 14.1954)" class="st0 st1">NICO101</text>
<line class="st2" x1="50" y1="10.7" x2="100.2" y2="10.7"/>
<line class="st2" x1="75.1" y1="25.2" x2="100.2" y2="25.2"/>
<text transform="matrix(1 0 0 1 106.3655 14.1952)" class="st0 st1">Prologue.ipynb</text>
<line class="st2" x1="75.1" y1="41.6" x2="100.2" y2="41.6"/>
<line class="st2" x1="75.1" y1="41.6" x2="100.2" y2="41.6"/>
<text transform="matrix(1 0 0 1 106.3652 29.0719)" class="st0 st1">README.md</text>
<line class="st2" x1="75.1" y1="41.6" x2="100.2" y2="41.6"/>
<text transform="matrix(1 0 0 1 106.3652 78.7007)" class="st0 st1">Lessons/</text>
<line class="st2" x1="75.1" y1="58.3" x2="100.2" y2="58.3"/>
<text transform="matrix(1 0 0 1 106.3652 62.1292)" class="st0 st1">Data/</text>
<line class="st2" x1="75.1" y1="10.7" x2="75.1" y2="75.9"/>
<line class="st2" x1="75.1" y1="74.9" x2="100.2" y2="74.9"/>
<line class="st2" x1="156.9" y1="74.9" x2="207.1" y2="74.9"/>
<line class="st2" x1="182.1" y1="89.4" x2="207.1" y2="89.4"/>
<line class="st2" x1="182.1" y1="105.8" x2="207.1" y2="105.8"/>
<line class="st2" x1="182.1" y1="105.8" x2="207.1" y2="105.8"/>
<line class="st2" x1="182.1" y1="105.8" x2="207.1" y2="105.8"/>
<line class="st2" x1="182.1" y1="122.5" x2="207.1" y2="122.5"/>
<line class="st2" x1="182.1" y1="74.9" x2="182.1" y2="140.1"/>
<line class="st2" x1="182.1" y1="139.1" x2="207.1" y2="139.1"/>
<text transform="matrix(1 0 0 1 211.2892 78.0506)" class="st0 st1">Day1_am1_Jupyter-Notebook-Introduction.ipynb</text>
<text transform="matrix(1 0 0 1 211.2895 92.9008)" class="st0 st1">Day1_am2_Data-Types.ipynb</text>
<text transform="matrix(1 0 0 1 211.2894 108.7907)" class="st0 st1">Day1_pm1_Flow-Control.ipynb</text>
<text transform="matrix(1 0 0 1 211.2893 126.1872)" class="st0 st1">Day1_pm2_Handling_Errors.ipynb</text>
<text transform="matrix(1 0 0 1 211.289 140.0682)" class="st0 st3">...</text>
<text transform="matrix(1 0 0 1 106.3652 45.4503)" class="st0 st1">LICENSE.md</text>
</svg>
