<?xml version="1.0" encoding="utf-8"?>
<!-- Generator: Adobe Illustrator 16.0.4, SVG Export Plug-In . SVG Version: 6.00 Build 0)  -->
<!DOCTYPE svg PUBLIC "-//W3C//DTD SVG 1.1//EN" "http://www.w3.org/Graphics/SVG/1.1/DTD/svg11.dtd">
<svg version="1.1" id="Layer_1" xmlns="http://www.w3.org/2000/svg" xmlns:xlink="http://www.w3.org/1999/xlink" x="0px" y="0px"
	 width="2880px" height="885.473px" viewBox="0 0 2880 885.473" enable-background="new 0 0 2880 885.473" xml:space="preserve">
<text transform="matrix(1 0 0 1 61.6865 139.2896)" font-family="'Inconsolata'" font-size="96">list = [ ... , ... , [ ] , ... ]</text>
<text transform="matrix(1 0 0 1 723.7344 448.2549)" font-family="'Inconsolata'" font-size="96">[ [ ] , ..., [ ] ]</text>
<line stroke="#000000" stroke-width="8" stroke-miterlimit="10" x1="1068.499" y1="167.045" x2="744.466" y2="344.063"/>
<line stroke="#000000" stroke-width="8" stroke-miterlimit="10" x1="1575.549" y1="344.063" x2="1218.837" y2="167.045"/>
<line stroke="#000000" stroke-width="8" stroke-miterlimit="10" x1="814.973" y1="473.704" x2="303.422" y2="674.096"/>
<line stroke="#000000" stroke-width="8" stroke-miterlimit="10" x1="1128.505" y1="674.096" x2="965.312" y2="473.704"/>
<text transform="matrix(1 0 0 1 282.7046 766.252)" font-family="'Inconsolata'" font-size="96">[ [ ] , ..., ... ]</text>
<line stroke="#000000" stroke-width="8" stroke-miterlimit="10" x1="1497.137" y1="473.704" x2="2008.688" y2="674.096"/>
<line stroke="#000000" stroke-width="8" stroke-miterlimit="10" x1="1183.604" y1="674.096" x2="1346.797" y2="473.704"/>
<text transform="matrix(-1 0 0 1 2029.4043 766.2524)" font-family="'Inconsolata'" font-size="96">[ [ ] , ..., ... ]</text>
<text transform="matrix(1 0 0 1 2166.8789 139.2891)" font-family="'Inconsolata'" font-size="96">list[ ]</text>
<text transform="matrix(1 0 0 1 2166.8789 448.2549)" font-family="'Inconsolata'" font-size="96">list[ ][ ]</text>
<text transform="matrix(1 0 0 1 2166.8789 766.2524)" font-family="'Inconsolata'" font-size="96">list[ ][ ][ ]</text>
</svg>
